<svg width="120" height="120" viewBox="0 0 120 120" fill="none" xmlns="http://www.w3.org/2000/svg">
<g clip-path="url(#clip0_63101_402)">
<path d="M116.941 54.7293L65.2697 3.05997C62.296 0.0843409 57.4697 0.0843409 54.4913 3.05997L43.7625 13.7906L57.3731 27.4012C60.5372 26.3334 64.1634 27.0497 66.6844 29.5706C69.2184 32.1075 69.9291 35.7647 68.835 38.939L81.9525 52.0575C85.126 50.9634 88.7888 51.6703 91.3219 54.209C94.8656 57.75 94.8656 63.4903 91.3219 67.0331C90.4798 67.8756 89.4799 68.544 88.3793 69C87.2788 69.456 86.0992 69.6907 84.908 69.6907C83.7167 69.6907 82.5371 69.456 81.4366 69C80.3361 68.544 79.3362 67.8756 78.4941 67.0331C77.2291 65.7668 76.3669 64.1548 76.0157 62.3998C75.6646 60.6448 75.8403 58.8251 76.5206 57.1697L64.2881 44.9372L64.2863 77.1318C65.1738 77.5688 65.9842 78.1476 66.6853 78.8456C70.2272 82.3865 70.2272 88.125 66.6853 91.6734C63.1425 95.2143 57.4003 95.2143 53.8613 91.6734C50.3194 88.1259 50.3194 82.3875 53.8613 78.8456C54.7106 77.9966 55.7197 77.3243 56.8303 76.8675V44.3747C55.7185 43.9197 54.709 43.2468 53.8613 42.3956C51.1781 39.7143 50.5322 35.7768 51.9085 32.4806L38.49 19.0622L3.06001 54.4903C1.63062 55.9201 0.827637 57.8591 0.827637 59.8809C0.827637 61.9027 1.63062 63.8417 3.06001 65.2715L54.7322 116.941C57.7078 119.917 62.5322 119.917 65.5125 116.941L116.942 65.5115C118.371 64.0813 119.174 62.1421 119.173 60.1202C119.173 58.0984 118.37 56.1593 116.941 54.7293Z" fill="#F34F29"/>
</g>
<defs>
<clipPath id="clip0_63101_402">
<rect width="120" height="120" fill="white"/>
</clipPath>
</defs>
</svg>
