<svg width="120" height="120" viewBox="0 0 120 120" fill="none" xmlns="http://www.w3.org/2000/svg">
<g clip-path="url(#clip0_1_3299)">
<path d="M59.9999 72.0082C65.9173 72.0082 70.7142 66.5776 70.7142 59.8788C70.7142 53.1799 65.9173 47.7494 59.9999 47.7494C54.0826 47.7494 49.2856 53.1799 49.2856 59.8788C49.2856 66.5776 54.0826 72.0082 59.9999 72.0082Z" fill="#F5DE19"/>
<path d="M60 87.6886C47.122 88.0413 34.2763 86.0761 21.9429 81.8665C16.2455 79.8219 10.9317 76.6011 6.27 72.3668C4.49113 70.9203 3.00974 69.0552 1.92747 66.8996C0.845197 64.7439 0.18767 62.3488 0 59.8784C0 51.8584 7.78286 43.9986 20.82 38.8558C33.4831 34.2987 46.714 32.0902 60 32.3156C73.1087 32.1083 86.1623 34.2769 98.6657 38.7393C104.153 40.7196 109.286 43.7847 113.829 47.7927C115.577 49.1717 117.036 50.9692 118.103 53.0578C119.169 55.1464 119.817 57.4749 120 59.8784C120 68.2137 111.3 76.6606 97.2857 81.9102C85.1911 85.9826 72.6164 87.9314 60 87.6886V87.6886ZM60 38.1183C47.2891 37.9259 34.6321 40.0255 22.5043 44.3382C10.5043 49.0784 5.12571 55.5603 5.12571 59.8638C5.12571 64.3663 10.9071 71.445 23.6014 76.3598C35.4003 80.3666 47.6855 82.2318 60 81.8859C72.0703 82.1303 84.1025 80.2814 95.6786 76.4035C108.857 71.4595 114.857 64.3711 114.857 59.8784C114.641 58.3366 114.145 56.8624 113.4 55.5488C112.655 54.2352 111.677 53.1108 110.529 52.2466C106.465 48.691 101.879 45.9744 96.9814 44.2218C85.0201 39.9705 72.5356 37.91 60 38.1183V38.1183Z" fill="#F5DE19"/>
<path d="M35.6555 120.375C33.6562 120.427 31.6805 119.877 29.9298 118.783C23.7927 114.776 21.6669 103.219 24.2426 87.863C27.0826 73.1675 32.0032 59.0887 38.8141 46.1719C45.2029 33.2134 53.382 21.4955 63.0412 11.4625C67.2976 7.07019 72.2078 3.56644 77.5441 1.11367C79.4742 0.0896602 81.5797 -0.441162 83.7112 -0.441162C85.8428 -0.441162 87.9482 0.0896602 89.8784 1.11367C96.2598 5.27648 98.3727 18.0269 95.3941 34.3918C92.4665 48.29 87.6736 61.5977 81.1827 73.8511C75.0186 86.6566 67.0971 98.2725 57.7141 108.265C53.3032 112.829 48.1841 116.43 42.6155 118.885C40.3862 119.822 38.033 120.325 35.6555 120.375V120.375ZM43.2541 49.0538C36.7574 61.4225 32.0412 74.8831 29.2827 88.9304C26.9127 103.073 29.1884 111.578 32.4969 113.742C35.9255 115.989 44.2484 113.859 54.3541 103.864C63.3113 94.2913 70.8722 83.1723 76.7555 70.9207C82.9738 59.2062 87.5713 46.4831 90.3884 33.1935C93.1912 17.7891 90.7698 8.35734 87.3326 6.11583C86.0444 5.55704 84.6678 5.3069 83.2898 5.38122C81.9118 5.45555 80.5624 5.85272 79.3269 6.54764C74.577 8.76657 70.2101 11.9167 66.4269 15.8533C57.1984 25.4636 49.3856 36.6816 43.2841 49.0829L43.2541 49.0538Z" fill="#F5DE19"/>
<path d="M84.326 120.438C78.5188 120.438 71.1431 116.459 63.4631 108.983C53.6347 98.8584 45.3173 87.0013 38.8331 73.8706C32.1077 61.1316 27.226 47.2565 24.3731 32.7714C23.1359 26.3986 22.9066 19.8278 23.696 13.3644C23.8785 10.9667 24.5234 8.6435 25.5853 6.55866C26.6471 4.47381 28.1001 2.67808 29.8417 1.29808C36.2145 -2.87928 47.0274 1.41452 58.0631 12.5056C67.2371 22.3168 75.0276 33.6627 81.1631 46.1477C87.8844 58.5893 92.8173 72.1605 95.7774 86.3542C97.0679 92.9608 97.267 99.7808 96.3645 106.47C96.1498 108.936 95.4665 111.321 94.3613 113.461C93.2561 115.6 91.7553 117.444 89.9617 118.866C88.2395 119.946 86.2944 120.489 84.326 120.438V120.438ZM43.2688 70.9498C49.4892 83.4986 57.4344 94.8465 66.806 104.568C76.4445 113.956 84.0903 115.974 87.3774 113.786C90.806 111.53 93.3345 102.321 90.7288 87.4215C87.874 73.8703 83.1426 60.916 76.7103 49.0393C70.8552 37.0901 63.4191 26.2257 54.6603 16.8237C44.2717 6.38272 35.846 4.04903 32.4131 6.30024C31.3432 7.28457 30.4651 8.50936 29.8344 9.89726C29.2037 11.2852 28.8341 12.806 28.7488 14.3639C28.0674 20.1282 28.2894 25.9833 29.4045 31.6603C32.1487 45.5128 36.8306 58.7798 43.2731 70.9595L43.2688 70.9498Z" fill="#F5DE19"/>
</g>
<defs>
<clipPath id="clip0_1_3299">
<rect width="120" height="120" fill="white"/>
</clipPath>
</defs>
</svg>
